<svg width="56" height="56" viewBox="0 0 56 56" fill="none" xmlns="http://www.w3.org/2000/svg">
<path fill-rule="evenodd" clip-rule="evenodd" d="M28 12.6667C19.5316 12.6667 12.6667 19.5316 12.6667 28C12.6667 36.4684 19.5316 43.3333 28 43.3333C36.4684 43.3333 43.3333 36.4684 43.3333 28C43.3333 19.5316 36.4684 12.6667 28 12.6667ZM10 28C10 18.0589 18.0589 10 28 10C37.9411 10 46 18.0589 46 28C46 37.9411 37.9411 46 28 46C18.0589 46 10 37.9411 10 28ZM19.4536 19.1465L26.2964 24.6765L24.6203 26.7505L20.2008 23.1789C19.8912 24.0565 19.5813 25.354 19.5813 27.0372C19.5813 29.1081 19.8848 30.7646 20.8619 32.3566C21.3169 33.098 22.0862 33.9536 22.931 34.5053C23.7994 35.0723 24.4689 35.1542 24.9377 34.9554L25.979 37.4103C24.3201 38.114 22.6672 37.5179 21.473 36.7381C20.2554 35.943 19.2221 34.7829 18.5891 33.7515C17.2633 31.5912 16.9146 29.3908 16.9146 27.0372C16.9146 24.9383 17.3177 23.294 17.7348 22.156C17.9431 21.5878 18.1545 21.1466 18.3203 20.8383C18.4032 20.6841 18.4748 20.5629 18.5291 20.4755C18.5562 20.4318 18.579 20.3965 18.5967 20.3697L18.6195 20.3358L18.6278 20.3237L18.6312 20.3188L18.6333 20.3157C18.6333 20.3157 18.634 20.3147 19.7255 21.0805L18.6333 20.3157L19.4536 19.1465ZM37.4373 19.3152L37.8026 20.752L36.5104 21.0805L36.0472 19.8302L37.4373 19.3152ZM27.7633 36.1828C26.6252 36.8775 26.6251 36.8772 26.6251 36.8772L26.6229 36.8737L26.6185 36.8663L26.6034 36.8414C26.5908 36.8204 26.573 36.7904 26.5506 36.7525C26.5059 36.6766 26.443 36.5682 26.367 36.4335C26.2156 36.1647 26.0105 35.7873 25.7947 35.3508C25.3795 34.5112 24.8619 33.3292 24.6765 32.2588C24.4383 30.8838 24.3236 29.7854 24.7647 28.2395C25.3406 26.2212 26.6299 25.0238 27.7616 24.1295C29.2747 22.9339 31.3763 21.8564 33.0295 21.0973C33.8696 20.7116 34.6199 20.3964 35.1609 20.1774C35.4316 20.0677 35.6507 19.9819 35.8032 19.923C35.8795 19.8936 35.9392 19.8708 35.9805 19.8553L36.0283 19.8373L36.0414 19.8324L36.0472 19.8302C36.0472 19.8302 36.0472 19.8302 36.5104 21.0805C37.8026 20.752 37.8026 20.752 37.8026 20.752L37.8056 20.7638L37.8132 20.7943L37.8414 20.908C37.8656 21.0062 37.9001 21.1478 37.9418 21.324C38.0251 21.6761 38.1379 22.1685 38.2561 22.7307C38.4889 23.8389 38.7557 25.279 38.8446 26.4553C38.8542 26.5826 38.8641 26.708 38.8739 26.8318C38.9794 28.173 39.0712 29.3392 38.6946 30.9354C38.1317 33.3207 36.8999 34.4487 36.3143 34.9507C36.2105 35.0397 36.1053 35.1335 35.9975 35.2297C35.6391 35.5494 35.2519 35.8949 34.7916 36.173C34.1508 36.5604 33.3647 36.844 32.1218 37.1714C31.6638 37.292 30.9327 37.3728 30.2069 37.4263C29.4448 37.4825 28.5699 37.5162 27.7633 37.5162H27.0151L26.6251 36.8772L27.7633 36.1828ZM27.2692 31.5985C27.0892 30.5125 27.0652 29.8958 27.329 28.9711C27.6726 27.7671 28.4239 27.0049 29.4149 26.2218C30.6662 25.2331 32.5256 24.2631 34.1423 23.5207C34.6628 23.2817 35.1477 23.071 35.5643 22.8957C35.5911 23.0188 35.6186 23.147 35.6464 23.2791C35.8749 24.3663 36.1105 25.6639 36.1855 26.6564C36.1943 26.7727 36.203 26.8849 36.2114 26.9933C36.3171 28.3639 36.3774 29.1441 36.0992 30.323C35.7164 31.9451 34.9387 32.6175 34.5787 32.9262C34.3608 33.113 34.1981 33.258 34.066 33.3756C33.7895 33.622 33.6471 33.7489 33.4123 33.8908C33.1075 34.075 32.6228 34.2818 31.4427 34.5926C31.2505 34.6432 30.7454 34.7128 30.0109 34.7669C29.7674 34.7848 29.5104 34.8003 29.2476 34.8128C29.3614 33.9977 29.5349 33.1178 29.7709 32.523C30.2933 31.2068 30.6799 30.5581 31.6176 29.5888C32.002 29.1915 32.6418 28.7346 33.2543 28.3476C33.5477 28.1622 33.8127 28.0065 34.0039 27.8975C34.0992 27.8431 34.1755 27.8008 34.2268 27.7726L34.2842 27.7413L34.2974 27.7342L34.2996 27.7331C34.9496 27.3872 35.1964 26.5798 34.8507 25.9298C34.5049 25.2796 33.6975 25.0329 33.0474 25.3787L33.6735 26.5559C33.0474 25.3787 33.0474 25.3787 33.0474 25.3787L33.0441 25.3804L33.0379 25.3837L33.017 25.395C32.9995 25.4045 32.9746 25.4179 32.9433 25.4351C32.8807 25.4695 32.7918 25.5189 32.6828 25.5811C32.4654 25.7051 32.1647 25.8817 31.8298 26.0933C31.1856 26.5004 30.3184 27.0965 29.701 27.7347C28.4823 28.9945 27.9211 29.9549 27.2923 31.5394C27.2845 31.559 27.2768 31.5787 27.2692 31.5985Z" fill="#29B7B7"/>
</svg>
