<svg width="56" height="56" viewBox="0 0 56 56" fill="none" xmlns="http://www.w3.org/2000/svg">
<path fill-rule="evenodd" clip-rule="evenodd" d="M23.6114 12.0153C21.4023 12.3775 20.0849 14.4339 19.7075 16.6543C19.6641 16.9094 19.8378 17.146 20.0892 17.1948L20.2183 17.2199C23.5555 17.8667 26.1357 19.7026 28.6785 22.9062C29.7928 24.3101 30.6749 25.5866 31.081 27.1607C31.1763 27.5298 31.6161 27.7048 31.8951 27.448C33.7344 25.755 35.3889 23.2093 36.0821 20.897C36.5829 19.2268 36.7514 17.0116 36.4617 15.9073C35.9743 14.0479 34.6545 12.6828 32.8319 12.1526C32.1296 11.9482 30.9187 11.9495 30.2065 12.1553C29.5296 12.3508 28.9065 12.6723 28.386 13.0947C28.1487 13.2873 27.9361 13.4449 27.9139 13.4449C27.8917 13.4449 27.6793 13.2873 27.4418 13.0947C26.583 12.3977 25.6291 12.0465 24.4908 12.0079C24.1107 11.9949 23.7151 11.9983 23.6114 12.0153ZM18.8802 19.278C14.8776 18.6233 13.0749 19.5302 12.1497 22.8271C11.9491 23.5422 11.9503 24.7752 12.1524 25.5003C12.3444 26.1897 12.6602 26.824 13.0749 27.3541C13.2641 27.5958 13.4189 27.8121 13.4189 27.8347C13.4189 27.8574 13.2641 28.0737 13.0749 28.3154C12.6602 28.8455 12.3444 29.4798 12.1524 30.1692C11.9503 30.8943 11.9491 32.1273 12.1497 32.8425C12.6704 34.6983 14.8126 36.3949 17.2818 36.6722C21.938 37.1953 25.016 33.9647 26.1811 32.8L26.5321 32.449C26.6362 32.3451 26.8131 32.4084 26.8292 32.5555C27.253 36.4441 28.706 39.948 31.1308 42.9285C31.3087 43.1471 31.6738 43.5478 31.9566 43.8504C32.1422 44.049 32.4503 44.0492 32.6406 43.855L33.8372 42.6346C34.0221 42.446 34.0266 42.1436 33.8506 41.9463C31.6902 39.5242 29.9291 36.7699 29.5815 32.8C29.4746 31.5802 29.5815 31.1182 29.5815 29.5602C29.5815 25.2167 23.7637 20.0768 18.8802 19.278ZM39.08 18.8129C38.8216 18.7966 38.5997 18.9889 38.5596 19.2478C38.3155 20.8244 37.2003 26.5785 32.8251 29.3419C31.9456 29.8974 31.6001 30.7707 31.6001 31.8193C31.6001 32.6356 31.5429 33.4265 32.174 34.5043C33.8042 37.288 37.2176 37.6095 40.1628 36.3395C42.023 35.5374 43.3294 34.4998 43.8502 32.6436C44.0504 31.9306 44.0497 30.6944 43.8488 29.9783C43.6554 29.2886 43.3314 28.6361 42.9235 28.1149C42.7352 27.8742 42.581 27.6586 42.581 27.636C42.581 27.6134 42.7359 27.3971 42.925 27.1554C43.3397 26.6254 43.6554 25.991 43.8476 25.3017C44.0497 24.5766 44.051 23.3434 43.8502 22.6284C43.3327 20.7833 41.9591 19.4006 40.1942 18.9479C39.9166 18.8768 39.4371 18.8353 39.08 18.8129Z" fill="#29B7B7"/>
</svg>
