<svg width="118" height="20" viewBox="0 0 118 20" fill="none" xmlns="http://www.w3.org/2000/svg">
<path d="M18.1105 15.3847V3.75439H19.6225V14.4709H25.6204V15.3847H18.1105ZM27.4407 7.07736V12.4771C27.4407 12.6765 27.4574 12.9534 27.4906 13.3079C27.5349 13.6512 27.6512 13.9946 27.8395 14.338C28.0278 14.6703 28.3213 14.9638 28.7201 15.2185C29.1299 15.4622 29.7003 15.5841 30.4314 15.5841C30.7526 15.5952 31.1015 15.5287 31.4781 15.3847C31.8658 15.2518 32.2535 14.9915 32.6412 14.6038L32.9069 14.338H32.9734V15.3847H34.3857V7.07736H32.9734V12.2279C32.9734 12.6599 32.9125 13.0309 32.7906 13.3411C32.6688 13.6512 32.5082 13.9115 32.3088 14.122C32.1095 14.3214 31.8768 14.4709 31.611 14.5706C31.3452 14.6703 31.0683 14.7201 30.7803 14.7201C30.315 14.7201 29.9496 14.6315 29.6837 14.4543C29.4289 14.266 29.2351 14.05 29.1022 13.8063C28.9803 13.5626 28.9084 13.3245 28.8862 13.0919C28.8641 12.8482 28.853 12.6709 28.853 12.5602V7.07736H27.4407ZM41.265 14.7201C40.8663 14.7201 40.4786 14.6592 40.102 14.5374C39.7365 14.4155 39.4098 14.2217 39.1218 13.9558C38.8338 13.6789 38.6012 13.3189 38.424 12.8759C38.2578 12.4217 38.1747 11.8679 38.1747 11.2144C38.1747 10.5387 38.2689 9.96828 38.4572 9.5031C38.6455 9.02679 38.8781 8.65018 39.155 8.37331C39.443 8.08531 39.7587 7.88038 40.102 7.75854C40.4454 7.62562 40.7722 7.55915 41.0823 7.55915C41.5918 7.55915 42.0349 7.69208 42.4115 7.95792C42.7881 8.22377 43.0373 8.55049 43.1592 8.93818H44.3056C44.1948 8.53941 44.0176 8.21269 43.7739 7.95792C43.5302 7.69208 43.2478 7.48162 42.9265 7.32654C42.6164 7.16044 42.2786 7.04967 41.913 6.99428C41.5586 6.92782 41.2153 6.89459 40.8829 6.89459C40.1851 6.89459 39.5704 7.0109 39.0387 7.24346C38.507 7.465 38.0584 7.76962 37.6929 8.15731C37.3274 8.54495 37.0505 8.9991 36.8622 9.51972C36.6849 10.0403 36.5963 10.5941 36.5963 11.1812C36.5963 11.8015 36.696 12.3829 36.8954 12.9257C37.0948 13.4574 37.3773 13.9226 37.7427 14.3214C38.1194 14.7091 38.568 15.0192 39.0885 15.2518C39.6092 15.4733 40.1962 15.5841 40.8497 15.5841C41.5807 15.5841 42.2177 15.4622 42.7604 15.2185C43.3142 14.9748 43.7794 14.7091 44.156 14.4211L43.6742 13.7897C43.2865 14.1109 42.8988 14.3491 42.5112 14.5041C42.1346 14.6481 41.7192 14.7201 41.265 14.7201ZM47.5445 3.75439H46.1323V15.3847H47.5445V12.2611L48.5082 11.2808L51.8477 15.3847H53.7087L49.5383 10.2674L52.7118 7.07736H51.6318L47.5445 11.1978V3.75439ZM58.2631 13.4408L55.3887 7.07736H53.8769L57.5985 15.285L56.718 17.4449C56.6185 17.6997 56.4857 17.9046 56.3195 18.0597C56.1641 18.2147 55.9816 18.2923 55.7708 18.2923C55.5718 18.2923 55.378 18.2314 55.1893 18.1095C55.0123 17.9987 54.8739 17.8326 54.7744 17.6111L54.0431 18.9901C54.2534 19.1784 54.4862 19.3168 54.7411 19.4055C54.9954 19.4941 55.2339 19.5384 55.4554 19.5384C55.7657 19.5384 56.0369 19.4608 56.2693 19.3058C56.5021 19.1507 56.7072 18.9458 56.8841 18.691C57.0616 18.4474 57.2164 18.1704 57.3493 17.8603C57.4821 17.5612 57.6098 17.2622 57.7313 16.9631L61.7523 7.07736H60.938L58.3298 13.4408H58.2631ZM64.0769 15.3847H68.2472C68.9893 15.3847 69.6149 15.2905 70.1246 15.1022C70.6339 14.9028 71.0441 14.6481 71.3539 14.338C71.6641 14.0278 71.8857 13.6789 72.0185 13.2913C72.1626 12.8925 72.2344 12.4937 72.2344 12.095C72.2344 11.4636 72.0959 10.9597 71.8195 10.5831C71.5534 10.2064 71.2323 9.91844 70.8554 9.71905C70.479 9.51972 70.0913 9.38679 69.6923 9.32033C69.2939 9.25387 68.9728 9.2151 68.7287 9.20403V9.13756C69.1164 9.13756 69.4821 9.06556 69.8257 8.92156C70.1687 8.76649 70.4677 8.57264 70.7226 8.34008C70.9887 8.09638 71.199 7.81946 71.3539 7.50931C71.5093 7.18808 71.5867 6.85028 71.5867 6.49582C71.5867 6.18567 71.52 5.87003 71.3872 5.54879C71.2544 5.22756 71.0493 4.93404 70.7723 4.6682C70.5067 4.40237 70.158 4.18638 69.7257 4.02023C69.3052 3.843 68.8067 3.75439 68.2303 3.75439H64.0769V15.3847ZM65.5887 14.6537V9.56956H67.4164C67.959 9.56956 68.4298 9.64156 68.8287 9.78551C69.2272 9.92951 69.5539 10.1234 69.8087 10.3671C70.0749 10.6107 70.2687 10.8932 70.3903 11.2144C70.5231 11.5356 70.5898 11.8735 70.5898 12.2279C70.5898 12.6156 70.518 12.9589 70.3739 13.258C70.2411 13.5571 70.058 13.8118 69.8257 14.0223C69.5928 14.2327 69.3159 14.3934 68.9949 14.5041C68.6846 14.6038 68.3523 14.6537 67.998 14.6537H65.5887ZM65.5887 8.83849V4.48544H67.6159C68.0477 4.48544 68.4134 4.54636 68.7123 4.6682C69.0226 4.79005 69.2718 4.95066 69.46 5.15003C69.6595 5.34941 69.8031 5.57649 69.8918 5.83126C69.9805 6.08597 70.0246 6.34074 70.0246 6.59551C70.0246 6.91674 69.9585 7.21577 69.8257 7.49269C69.7036 7.76962 69.5262 8.00777 69.2939 8.20715C69.0723 8.40654 68.8118 8.56156 68.5128 8.67233C68.2252 8.7831 67.9149 8.83849 67.5826 8.83849H65.5887ZM74.397 7.07736V15.3847H75.8093V10.3671C75.8093 9.9129 75.859 9.5308 75.9585 9.22064C76.0693 8.89941 76.2077 8.6391 76.3739 8.43977C76.54 8.24038 76.7226 8.09638 76.9221 8.00777C77.1216 7.91915 77.3154 7.87485 77.5036 7.87485C77.7585 7.87485 77.9913 7.95792 78.2016 8.12408C78.4231 8.29023 78.5836 8.44531 78.6831 8.58926L79.2482 7.55915C79.1487 7.42623 79.0267 7.31546 78.8826 7.22685C78.7498 7.13828 78.6113 7.07182 78.4672 7.02751C78.3344 6.97213 78.2072 6.9389 78.0852 6.92782C77.9744 6.90567 77.8913 6.89459 77.8359 6.89459C77.3708 6.89459 76.9831 7.02197 76.6728 7.27669C76.3626 7.53146 76.1082 7.90808 75.9087 8.40654H75.8093V7.07736H74.397ZM80.7411 7.07736V12.4771C80.7411 12.6765 80.7575 12.9534 80.7908 13.3079C80.8349 13.6512 80.9513 13.9946 81.1395 14.338C81.3277 14.6703 81.6216 14.9638 82.02 15.2185C82.4298 15.4622 83.0005 15.5841 83.7313 15.5841C84.0528 15.5952 84.4016 15.5287 84.778 15.3847C85.1657 15.2518 85.5534 14.9915 85.9411 14.6038L86.2072 14.338H86.2734V15.3847H87.6857V7.07736H86.2734V12.2279C86.2734 12.6599 86.2128 13.0309 86.0908 13.3411C85.9687 13.6512 85.8082 13.9115 85.6087 14.122C85.4098 14.3214 85.177 14.4709 84.9113 14.5706C84.6452 14.6703 84.3682 14.7201 84.0805 14.7201C83.6154 14.7201 83.2498 14.6315 82.9836 14.4543C82.7293 14.266 82.5354 14.05 82.4021 13.8063C82.2805 13.5626 82.2082 13.3245 82.1862 13.0919C82.1641 12.8482 82.1528 12.6709 82.1528 12.5602V7.07736H80.7411ZM97.34 15.3847V10.0015C97.34 9.80213 97.3231 9.5308 97.2898 9.18741C97.257 8.83295 97.1462 8.48956 96.9575 8.15731C96.7805 7.81392 96.4923 7.52038 96.0939 7.27669C95.6949 7.02197 95.1303 6.89459 94.399 6.89459C94.078 6.88351 93.718 6.94997 93.319 7.09397C92.9205 7.22685 92.5272 7.48715 92.1395 7.87485L91.8734 8.14069H91.8072V7.07736H90.3949V15.3847H91.8072V10.2507C91.8072 9.81874 91.8682 9.44772 91.9898 9.13756C92.1118 8.82741 92.278 8.5671 92.4882 8.35669C92.699 8.14623 92.937 7.99115 93.2026 7.89146C93.4795 7.79177 93.7621 7.74192 94.0503 7.74192C94.5154 7.74192 94.8754 7.83608 95.1303 8.02438C95.3846 8.20162 95.5677 8.41208 95.6785 8.65572C95.8 8.89941 95.8723 9.1431 95.8944 9.38679C95.9164 9.63049 95.9277 9.80767 95.9277 9.91844V15.3847H97.34ZM104.219 14.7201C103.821 14.7201 103.433 14.6592 103.056 14.5374C102.691 14.4155 102.364 14.2217 102.076 13.9558C101.788 13.6789 101.555 13.3189 101.378 12.8759C101.212 12.4217 101.129 11.8679 101.129 11.2144C101.129 10.5387 101.223 9.96828 101.411 9.5031C101.6 9.02679 101.832 8.65018 102.109 8.37331C102.397 8.08531 102.713 7.88038 103.056 7.75854C103.4 7.62562 103.726 7.55915 104.036 7.55915C104.546 7.55915 104.989 7.69208 105.366 7.95792C105.742 8.22377 105.991 8.55049 106.113 8.93818H107.26C107.149 8.53941 106.972 8.21269 106.728 7.95792C106.484 7.69208 106.202 7.48162 105.881 7.32654C105.571 7.16044 105.233 7.04967 104.867 6.99428C104.513 6.92782 104.169 6.89459 103.837 6.89459C103.14 6.89459 102.525 7.0109 101.993 7.24346C101.461 7.465 101.013 7.76962 100.647 8.15731C100.282 8.54495 100.005 8.9991 99.8164 9.51972C99.639 10.0403 99.5503 10.5941 99.5503 11.1812C99.5503 11.8015 99.6503 12.3829 99.8498 12.9257C100.049 13.4574 100.331 13.9226 100.697 14.3214C101.073 14.7091 101.522 15.0192 102.043 15.2518C102.563 15.4733 103.15 15.5841 103.804 15.5841C104.535 15.5841 105.172 15.4622 105.714 15.2185C106.268 14.9748 106.733 14.7091 107.11 14.4211L106.628 13.7897C106.241 14.1109 105.853 14.3491 105.465 14.5041C105.089 14.6481 104.673 14.7201 104.219 14.7201ZM109.087 3.75439V15.3847H110.498V10.5831C110.498 10.3615 110.515 10.0901 110.549 9.7689C110.582 9.44772 110.67 9.13756 110.814 8.83849C110.969 8.53941 111.196 8.28469 111.495 8.07423C111.794 7.85269 112.21 7.74192 112.742 7.74192C113.118 7.74192 113.417 7.81392 113.639 7.95792C113.871 8.09085 114.049 8.27362 114.171 8.50618C114.292 8.7388 114.37 9.01018 114.403 9.32033C114.447 9.63049 114.47 9.95167 114.47 10.284V15.3847H115.882V9.90182C115.882 9.28156 115.793 8.77756 115.616 8.38992C115.439 7.99115 115.217 7.681 114.951 7.45946C114.686 7.23792 114.392 7.08844 114.071 7.0109C113.761 6.93336 113.462 6.89459 113.174 6.89459C112.786 6.89459 112.376 6.97213 111.944 7.1272C111.523 7.27115 111.125 7.55362 110.748 7.97454L110.565 8.20715H110.498V3.75439H109.087Z" fill="#29B7B7"/>
<path fill-rule="evenodd" clip-rule="evenodd" d="M5.22179 4.92815C4.48198 5.04814 4.04076 5.72919 3.91437 6.46458C3.89985 6.54909 3.958 6.62745 4.04221 6.6436L4.08545 6.65191C5.20307 6.86612 6.06718 7.47417 6.91877 8.53519C7.29195 9.00017 7.58738 9.42294 7.72338 9.94427C7.75528 10.0665 7.90256 10.1245 7.996 10.0395C8.612 9.47873 9.1661 8.6356 9.39825 7.86976C9.56594 7.31658 9.62241 6.58294 9.52538 6.21719C9.36215 5.60135 8.92015 5.14924 8.30974 4.97363C8.07456 4.90595 7.66902 4.90636 7.43051 4.97452C7.20379 5.0393 6.99512 5.14576 6.82082 5.28566C6.74133 5.34945 6.67015 5.40166 6.66271 5.40166C6.65528 5.40166 6.58415 5.34945 6.50461 5.28566C6.21697 5.05482 5.89753 4.93849 5.5163 4.9257C5.38902 4.92142 5.25651 4.92254 5.22179 4.92815ZM3.6373 7.33355C2.29684 7.11673 1.69313 7.41709 1.38327 8.50899C1.31607 8.74586 1.31647 9.15422 1.38416 9.39437C1.44848 9.62268 1.55423 9.83278 1.69313 10.0083C1.75648 10.0884 1.80834 10.16 1.80834 10.1675C1.80834 10.175 1.75648 10.2467 1.69313 10.3267C1.55423 10.5023 1.44848 10.7124 1.38416 10.9407C1.31647 11.1808 1.31607 11.5892 1.38327 11.8261C1.55766 12.4407 2.27506 13.0026 3.102 13.0945C4.66138 13.2677 5.6922 12.1978 6.08241 11.812L6.19995 11.6958C6.23482 11.6613 6.29405 11.6823 6.29943 11.731C6.44138 13.0189 6.928 14.1794 7.74005 15.1665C7.79964 15.2389 7.92189 15.3717 8.01661 15.4719C8.07877 15.5377 8.18195 15.5377 8.24569 15.4734L8.64641 15.0692C8.70836 15.0067 8.70984 14.9066 8.65092 14.8412C7.92738 14.039 7.33759 13.1268 7.22118 11.812C7.18538 11.408 7.22118 11.255 7.22118 10.739C7.22118 9.30042 5.27282 7.59812 3.6373 7.33355ZM10.4023 7.1795C10.3157 7.17412 10.2414 7.23781 10.2279 7.32355C10.1462 7.84571 9.77271 9.75145 8.30748 10.6667C8.01292 10.8507 7.89723 11.1399 7.89723 11.4872C7.89723 11.7576 7.87805 12.0195 8.08943 12.3765C8.63538 13.2984 9.77851 13.4049 10.7649 12.9843C11.3878 12.7186 11.8254 12.375 11.9998 11.7602C12.0668 11.5241 12.0666 11.1146 11.9993 10.8775C11.9346 10.649 11.826 10.4329 11.6894 10.2603C11.6264 10.1806 11.5747 10.1092 11.5747 10.1017C11.5747 10.0942 11.6266 10.0226 11.6899 9.94253C11.8288 9.76699 11.9346 9.55689 11.9989 9.32858C12.0666 9.08842 12.067 8.68001 11.9998 8.44319C11.8265 7.83212 11.3665 7.37417 10.7754 7.22422C10.6824 7.20068 10.5218 7.18694 10.4023 7.1795Z" fill="#29B7B7"/>
</svg>
