<svg width="131" height="20" viewBox="0 0 131 20" fill="none" xmlns="http://www.w3.org/2000/svg">
<path d="M23.4248 15.4109V2.56145H25.0884V14.4013H31.6877V15.4109H23.4248Z" fill="#29B7B7"/>
<path d="M33.6906 6.23273V12.1985C33.6906 12.4188 33.7089 12.7248 33.7454 13.1164C33.7942 13.4957 33.9221 13.8751 34.1293 14.2545C34.3365 14.6216 34.6595 14.9459 35.0982 15.2273C35.5491 15.4966 36.1768 15.6312 36.9811 15.6312C37.3345 15.6434 37.7184 15.57 38.1328 15.4109C38.5593 15.2641 38.9859 14.9765 39.4124 14.5482L39.7049 14.2545H39.7781V15.4109H41.3319V6.23273H39.7781V11.9232C39.7781 12.4005 39.711 12.8104 39.577 13.1531C39.4429 13.4957 39.2662 13.7833 39.0468 14.0158C38.8275 14.2361 38.5715 14.4013 38.279 14.5114C37.9865 14.6216 37.6819 14.6767 37.365 14.6767C36.8531 14.6767 36.451 14.5788 36.1585 14.383C35.8782 14.1749 35.6649 13.9363 35.5187 13.6671C35.3846 13.3978 35.3054 13.1347 35.281 12.8777C35.2566 12.6085 35.2444 12.4127 35.2444 12.2903V6.23273H33.6906Z" fill="#29B7B7"/>
<path d="M48.9011 14.6767C48.4624 14.6767 48.0359 14.6093 47.6215 14.4747C47.2193 14.3401 46.8598 14.126 46.5429 13.8323C46.2261 13.5263 45.9701 13.1286 45.7751 12.6391C45.5923 12.1374 45.5009 11.5255 45.5009 10.8035C45.5009 10.057 45.6045 9.42673 45.8117 8.91276C46.0189 8.38654 46.2748 7.97046 46.5795 7.66452C46.8964 7.34635 47.2437 7.11995 47.6215 6.98534C47.9993 6.83849 48.3588 6.76506 48.7001 6.76506C49.2607 6.76506 49.7481 6.91191 50.1625 7.20561C50.5769 7.49931 50.8511 7.86032 50.9851 8.28864H52.2465C52.1246 7.84809 51.9296 7.48708 51.6615 7.20561C51.3934 6.91191 51.0826 6.6794 50.7292 6.50807C50.388 6.32451 50.0163 6.20213 49.6141 6.14094C49.2241 6.06752 48.8463 6.0308 48.4807 6.0308C47.7129 6.0308 47.0365 6.1593 46.4515 6.41629C45.8665 6.66104 45.373 6.99757 44.9708 7.42589C44.5686 7.8542 44.2639 8.35595 44.0567 8.93111C43.8618 9.50628 43.7643 10.1182 43.7643 10.7667C43.7643 11.4521 43.8739 12.0945 44.0933 12.6942C44.3127 13.2816 44.6234 13.7955 45.0256 14.2361C45.44 14.6644 45.9336 15.0071 46.5064 15.2641C47.0792 15.5088 47.7251 15.6312 48.4441 15.6312C49.2485 15.6312 49.9492 15.4966 50.5464 15.2273C51.1558 14.9581 51.6676 14.6644 52.082 14.3462L51.5518 13.6487C51.1253 14.0036 50.6987 14.2667 50.2722 14.438C49.8578 14.5971 49.4008 14.6767 48.9011 14.6767Z" fill="#29B7B7"/>
<path d="M55.8102 2.56145H54.2564V15.4109H55.8102V11.9599L56.8705 10.8769L60.545 15.4109H62.5924L58.0039 9.75715L61.4956 6.23273H60.3073L55.8102 10.7851V2.56145Z" fill="#29B7B7"/>
<path d="M67.6038 13.2632L64.4412 6.23273H62.7776L66.8725 15.3008L65.9036 17.6871C65.794 17.9686 65.6477 18.195 65.4649 18.3663C65.2943 18.5376 65.0932 18.6233 64.8616 18.6233C64.6423 18.6233 64.429 18.556 64.2218 18.4214C64.0268 18.299 63.8745 18.1154 63.7648 17.8707L62.9604 19.3942C63.192 19.6023 63.4479 19.7552 63.7282 19.8531C64.0085 19.951 64.2706 20 64.5143 20C64.8555 20 65.1541 19.9143 65.4101 19.743C65.666 19.5717 65.8915 19.3453 66.0864 19.0638C66.2814 18.7946 66.4521 18.4887 66.5983 18.146C66.7446 17.8156 66.8847 17.4852 67.0188 17.1548L71.4427 6.23273H70.5469L67.6769 13.2632H67.6038Z" fill="#29B7B7"/>
<path d="M74.0003 15.4109H78.5888C79.4053 15.4109 80.0939 15.3069 80.6545 15.0989C81.2151 14.8786 81.666 14.5971 82.0072 14.2545C82.3485 13.9118 82.5922 13.5263 82.7385 13.098C82.8969 12.6575 82.9761 12.2169 82.9761 11.7763C82.9761 11.0788 82.8238 10.522 82.5191 10.1059C82.2266 9.68984 81.8732 9.37166 81.4588 9.15139C81.0445 8.93111 80.6179 8.78426 80.1792 8.71084C79.7404 8.63741 79.387 8.59458 79.1189 8.58234V8.50891C79.5454 8.50891 79.9476 8.42937 80.3254 8.27028C80.7032 8.09896 81.0323 7.8848 81.3126 7.62781C81.6051 7.35858 81.8366 7.05264 82.0072 6.70999C82.1779 6.3551 82.2632 5.98185 82.2632 5.59025C82.2632 5.2476 82.1901 4.89883 82.0438 4.54394C81.8976 4.18905 81.6721 3.86475 81.3674 3.57105C81.0749 3.27735 80.691 3.03872 80.2157 2.85515C79.7526 2.65935 79.2042 2.56145 78.5705 2.56145H74.0003V15.4109ZM75.6638 14.6032V8.98618H77.6747C78.2719 8.98618 78.7898 9.06572 79.2286 9.22481C79.6673 9.3839 80.0268 9.59806 80.3071 9.86729C80.5996 10.1365 80.8129 10.4486 80.947 10.8035C81.0932 11.1583 81.1663 11.5316 81.1663 11.9232C81.1663 12.3515 81.0871 12.7309 80.9287 13.0613C80.7824 13.3917 80.5814 13.6732 80.3254 13.9057C80.0695 14.1382 79.7648 14.3156 79.4114 14.438C79.0701 14.5482 78.7045 14.6032 78.3145 14.6032H75.6638ZM75.6638 8.1785V3.36913H77.8941C78.3694 3.36913 78.7716 3.43644 79.1006 3.57105C79.4418 3.70567 79.7161 3.88311 79.9232 4.10339C80.1426 4.32366 80.301 4.57453 80.3985 4.856C80.496 5.13746 80.5448 5.41893 80.5448 5.70039C80.5448 6.05528 80.4717 6.3857 80.3254 6.69163C80.1914 6.99757 79.9964 7.26068 79.7404 7.48096C79.4967 7.70124 79.2103 7.87256 78.8812 7.99494C78.5644 8.11731 78.2231 8.1785 77.8575 8.1785H75.6638Z" fill="#29B7B7"/>
<path d="M85.355 6.23273V15.4109H86.9089V9.86729C86.9089 9.36555 86.9637 8.94335 87.0734 8.6007C87.1953 8.24581 87.3476 7.95822 87.5304 7.73795C87.7133 7.51767 87.9143 7.35858 88.1337 7.26068C88.3531 7.16278 88.5664 7.11383 88.7735 7.11383C89.0538 7.11383 89.3098 7.20561 89.5413 7.38918C89.7851 7.57274 89.9618 7.74407 90.0715 7.90316L90.693 6.76506C90.5833 6.61821 90.4493 6.49583 90.2908 6.39793C90.1446 6.30003 89.9922 6.22661 89.8338 6.17766C89.6876 6.11647 89.5474 6.07976 89.4134 6.06752C89.2915 6.04304 89.2001 6.0308 89.1392 6.0308C88.6273 6.0308 88.2007 6.17154 87.8595 6.453C87.5183 6.73447 87.238 7.15054 87.0186 7.70124H86.9089V6.23273H85.355Z" fill="#29B7B7"/>
<path d="M92.3353 6.23273V12.1985C92.3353 12.4188 92.3536 12.7248 92.3901 13.1164C92.4389 13.4957 92.5668 13.8751 92.774 14.2545C92.9812 14.6216 93.3042 14.9459 93.7429 15.2273C94.1938 15.4966 94.8215 15.6312 95.6258 15.6312C95.9792 15.6434 96.3631 15.57 96.7775 15.4109C97.204 15.2641 97.6306 14.9765 98.0572 14.5482L98.3496 14.2545H98.4228V15.4109H99.9766V6.23273H98.4228V11.9232C98.4228 12.4005 98.3557 12.8104 98.2217 13.1531C98.0876 13.4957 97.9109 13.7833 97.6915 14.0158C97.4722 14.2361 97.2162 14.4013 96.9237 14.5114C96.6312 14.6216 96.3266 14.6767 96.0097 14.6767C95.4978 14.6767 95.0957 14.5788 94.8032 14.383C94.5229 14.1749 94.3096 13.9363 94.1634 13.6671C94.0293 13.3978 93.9501 13.1347 93.9257 12.8777C93.9013 12.6085 93.8891 12.4127 93.8891 12.2903V6.23273H92.3353Z" fill="#29B7B7"/>
<path d="M110.599 15.4109V9.46345C110.599 9.24317 110.58 8.94335 110.544 8.56398C110.507 8.17238 110.385 7.79302 110.178 7.42589C109.983 7.04652 109.666 6.72223 109.228 6.453C108.789 6.17154 108.167 6.0308 107.363 6.0308C107.01 6.01857 106.614 6.09199 106.175 6.25108C105.736 6.39793 105.303 6.68552 104.877 7.11383L104.584 7.40753H104.511V6.23273H102.957V15.4109H104.511V9.73879C104.511 9.26153 104.578 8.85157 104.712 8.50891C104.846 8.16626 105.029 7.87868 105.261 7.64617C105.492 7.41365 105.754 7.24233 106.047 7.13219C106.352 7.02205 106.662 6.96698 106.979 6.96698C107.491 6.96698 107.887 7.071 108.167 7.27904C108.448 7.47484 108.649 7.70735 108.771 7.97658C108.905 8.24581 108.984 8.51503 109.008 8.78426C109.033 9.05349 109.045 9.24929 109.045 9.37166V15.4109H110.599Z" fill="#29B7B7"/>
<path d="M118.168 14.6767C117.729 14.6767 117.303 14.6093 116.888 14.4747C116.486 14.3401 116.127 14.126 115.81 13.8323C115.493 13.5263 115.237 13.1286 115.042 12.6391C114.859 12.1374 114.768 11.5255 114.768 10.8035C114.768 10.057 114.871 9.42673 115.078 8.91276C115.286 8.38654 115.542 7.97046 115.846 7.66452C116.163 7.34635 116.51 7.11995 116.888 6.98534C117.266 6.83849 117.626 6.76506 117.967 6.76506C118.527 6.76506 119.015 6.91191 119.429 7.20561C119.844 7.49931 120.118 7.86032 120.252 8.28864H121.513C121.391 7.84809 121.196 7.48708 120.928 7.20561C120.66 6.91191 120.349 6.6794 119.996 6.50807C119.655 6.32451 119.283 6.20213 118.881 6.14094C118.491 6.06752 118.113 6.0308 117.747 6.0308C116.98 6.0308 116.303 6.1593 115.718 6.41629C115.133 6.66104 114.64 6.99757 114.238 7.42589C113.835 7.8542 113.531 8.35595 113.324 8.93111C113.129 9.50628 113.031 10.1182 113.031 10.7667C113.031 11.4521 113.141 12.0945 113.36 12.6942C113.579 13.2816 113.89 13.7955 114.292 14.2361C114.707 14.6644 115.2 15.0071 115.773 15.2641C116.346 15.5088 116.992 15.6312 117.711 15.6312C118.515 15.6312 119.216 15.4966 119.813 15.2273C120.423 14.9581 120.934 14.6644 121.349 14.3462L120.819 13.6487C120.392 14.0036 119.966 14.2667 119.539 14.438C119.125 14.5971 118.668 14.6767 118.168 14.6767Z" fill="#29B7B7"/>
<path d="M123.523 2.56145V15.4109H125.077V10.1059C125.077 9.86117 125.095 9.56135 125.132 9.20646C125.168 8.85157 125.266 8.50891 125.424 8.1785C125.595 7.84809 125.845 7.56662 126.174 7.33411C126.503 7.08936 126.96 6.96698 127.545 6.96698C127.959 6.96698 128.288 7.04652 128.532 7.20561C128.788 7.35246 128.983 7.55438 129.117 7.81137C129.251 8.06836 129.336 8.36818 129.373 8.71084C129.422 9.05349 129.446 9.40838 129.446 9.7755V15.4109H131V9.35331C131 8.668 130.902 8.11119 130.708 7.68288C130.513 7.24233 130.269 6.89967 129.976 6.65492C129.684 6.41017 129.361 6.24496 129.007 6.1593C128.666 6.07364 128.337 6.0308 128.02 6.0308C127.594 6.0308 127.143 6.11647 126.667 6.28779C126.204 6.44688 125.766 6.75894 125.351 7.22397L125.15 7.48096H125.077V2.56145H123.523Z" fill="#29B7B7"/>
<path fill-rule="evenodd" clip-rule="evenodd" d="M9.14073 1.35979C4.84034 1.35979 1.35418 4.86037 1.35418 9.17856C1.35418 13.4967 4.84034 16.9973 9.14073 16.9973C13.4411 16.9973 16.9273 13.4967 16.9273 9.17856C16.9273 4.86037 13.4411 1.35979 9.14073 1.35979ZM0 9.17856C0 4.10938 4.09245 0 9.14073 0C14.189 0 18.2815 4.10938 18.2815 9.17856C18.2815 14.2477 14.189 18.3571 9.14073 18.3571C4.09245 18.3571 0 14.2477 0 9.17856ZM4.80073 4.664L8.27561 7.48383L7.42444 8.54143L5.18014 6.7202C5.02291 7.16768 4.86555 7.82929 4.86555 8.68762C4.86554 9.74361 5.01968 10.5883 5.51585 11.4001C5.74693 11.7781 6.13758 12.2144 6.56663 12.4957C7.00757 12.7849 7.34757 12.8266 7.58562 12.7252L8.11444 13.977C7.27201 14.3359 6.43265 14.0319 5.82622 13.6343C5.2079 13.2288 4.68315 12.6373 4.36171 12.1114C3.68842 11.0098 3.51136 9.88775 3.51136 8.68761C3.51137 7.61735 3.71608 6.77887 3.92789 6.19858C4.03365 5.90883 4.14101 5.68387 4.2252 5.52665C4.26731 5.44802 4.30367 5.38624 4.33122 5.34166C4.345 5.31937 4.35658 5.30137 4.36559 5.28769L4.37712 5.27043L4.38135 5.26424L4.38306 5.26176L4.38417 5.26017C4.38417 5.26017 4.38451 5.25969 4.93878 5.65018L4.38417 5.26017L4.80073 4.664ZM13.9331 4.75003L14.1187 5.48264L13.4624 5.65018L13.2272 5.01264L13.9331 4.75003ZM9.02054 13.3511C8.4426 13.7054 8.44252 13.7052 8.44252 13.7052L8.44142 13.7034L8.43916 13.6997L8.43154 13.687C8.42512 13.6762 8.41606 13.661 8.40471 13.6416C8.38201 13.6029 8.35005 13.5477 8.31149 13.4789C8.23458 13.3419 8.1304 13.1494 8.02083 12.9269C7.81001 12.4987 7.54717 11.896 7.453 11.3502C7.33202 10.6491 7.2738 10.089 7.49779 9.30066C7.79022 8.27152 8.44497 7.66093 9.01967 7.20493C9.78802 6.59528 10.8553 6.04582 11.6948 5.65873C12.1214 5.46204 12.5025 5.30132 12.7772 5.18964C12.9147 5.13373 13.0259 5.08996 13.1034 5.05994C13.1421 5.04492 13.1724 5.03334 13.1934 5.02539L13.2177 5.01622L13.2243 5.01372L13.2272 5.01264C13.2272 5.01264 13.2272 5.01264 13.4624 5.65018C14.1187 5.48264 14.1187 5.48264 14.1187 5.48264L14.1202 5.48867L14.1241 5.50422L14.1384 5.56221C14.1507 5.61227 14.1682 5.68446 14.1894 5.77433C14.2317 5.95389 14.2889 6.20494 14.3489 6.49163C14.4672 7.05673 14.6027 7.79105 14.6478 8.3909C14.6527 8.45582 14.6577 8.51973 14.6627 8.58288C14.7163 9.26678 14.7629 9.86142 14.5716 10.6754C14.2858 11.8917 13.6603 12.4669 13.3629 12.7229C13.3102 12.7682 13.2568 12.8161 13.202 12.8651C13.02 13.0281 12.8234 13.2043 12.5897 13.3461C12.2642 13.5437 11.8651 13.6883 11.2338 13.8552C11.0013 13.9167 10.63 13.958 10.2614 13.9852C9.87444 14.0139 9.43016 14.031 9.02054 14.031H8.64057L8.44252 13.7052L9.02054 13.3511ZM8.76962 11.0135C8.67822 10.4597 8.66603 10.1452 8.8 9.67375C8.97445 9.05981 9.35599 8.67114 9.85924 8.27184C10.4947 7.76767 11.4389 7.27302 12.2599 6.89447C12.5242 6.77259 12.7705 6.66515 12.982 6.57578C12.9957 6.63856 13.0096 6.7039 13.0237 6.77127C13.1397 7.32568 13.2594 7.98735 13.2975 8.49343C13.302 8.55275 13.3064 8.60993 13.3106 8.66524C13.3643 9.36411 13.3949 9.76194 13.2536 10.3631C13.0593 11.1902 12.6643 11.5331 12.4815 11.6905C12.3708 11.7858 12.2882 11.8597 12.2212 11.9197C12.0808 12.0453 12.0084 12.11 11.8892 12.1824C11.7344 12.2763 11.4883 12.3818 10.889 12.5403C10.7914 12.5661 10.5349 12.6015 10.1619 12.6291C10.0383 12.6383 9.90775 12.6462 9.77427 12.6526C9.8321 12.2369 9.92018 11.7882 10.04 11.4849C10.3053 10.8137 10.5017 10.483 10.9778 9.98872C11.173 9.78612 11.4979 9.55316 11.809 9.35583C11.958 9.26129 12.0925 9.18189 12.1896 9.12629C12.238 9.09857 12.2767 9.07698 12.3028 9.06261L12.332 9.04665L12.3387 9.04302L12.3398 9.04244C12.6699 8.86608 12.7952 8.45439 12.6196 8.1229C12.444 7.79138 12.034 7.66557 11.7039 7.84189L12.0218 8.44216C11.7039 7.84189 11.7039 7.84189 11.7039 7.84189L11.7022 7.84278L11.6991 7.84447L11.6885 7.85019C11.6796 7.85504 11.6669 7.86191 11.651 7.87069C11.6192 7.88822 11.5741 7.9134 11.5188 7.9451C11.4083 8.00833 11.2557 8.09839 11.0856 8.2063C10.7584 8.41388 10.318 8.71784 10.0045 9.04329C9.38567 9.68567 9.10069 10.1754 8.78136 10.9833C8.77741 10.9933 8.7735 11.0034 8.76962 11.0135Z" fill="#29B7B7"/>
</svg>
